<?xml version="1.0" encoding="utf-8"?>
<!-- Generator: Adobe Illustrator 19.0.0, SVG Export Plug-In . SVG Version: 6.00 Build 0)  -->
<svg version="1.1" id="Layer_1" xmlns="http://www.w3.org/2000/svg" xmlns:xlink="http://www.w3.org/1999/xlink" x="0px" y="0px"
	 viewBox="0 0 528 322.7" style="enable-background:new 0 0 528 322.7;" xml:space="preserve">
<style type="text/css">
	.st0{fill:#E0E0E0;}
	.st1{fill:#F97362;}
	.st2{fill:#FFFFFF;}
	.st3{fill:#333333;}
</style>
<rect id="XMLID_14_" x="354.7" y="29.3" class="st0" width="107.1" height="40.7"/>
<g id="XMLID_69_">
	<path id="XMLID_70_" class="st1" d="M86.8,29.3h10.1l15.9,42H99.6l-1.4-3.8H85.4l-1.4,3.8H70.8L86.8,29.3z M80.2,66.3l1.2-3.1h20.8
		l1.2,3.1h1.8L93,34.4h-2.4L78.4,66.3H80.2z M91.8,35.9l9.8,25.8H82L91.8,35.9z M94.6,58.3L91.8,51L89,58.3H94.6z"/>
	<path id="XMLID_75_" class="st1" d="M104,29.3h14.2l4.9,14.7l4.9-14.7h9.2L142,44l4.9-14.7H161l-13.9,42h-10.5l-4.2-12.7l-4.2,12.7
		h-10.5L104,29.3z M124.1,66.3l8.4-26.4l8.4,26.4h1.6L153,34.4h-1.7l-9.6,29l-9.2-29l-9.2,29l-9.6-29H112l10.5,31.9H124.1z"/>
	<path id="XMLID_78_" class="st1" d="M162,29.3h24.8v11h-11.3V45h11.2v10.5h-11.2v4.9h11.8v11H162V29.3z M182.5,66.3v-1.5h-12.6V51
		h12v-1.5h-12V35.9h12.6v-1.5h-14.2v31.9H182.5z"/>
	<path id="XMLID_81_" class="st1" d="M189.8,58.3c0.9,0.3,1.9,0.5,2.9,0.7c0.8,0.2,1.8,0.4,2.9,0.5c1.1,0.1,2.2,0.2,3.2,0.2
		c1.9,0,2.9-0.7,2.9-2.1c0-0.5-0.3-1.1-0.9-1.7c-0.6-0.6-1.3-1.2-2.2-1.9c-0.9-0.7-1.9-1.5-2.9-2.3c-1-0.8-2-1.8-2.9-2.9
		c-0.9-1.1-1.6-2.3-2.2-3.7c-0.6-1.4-0.9-2.9-0.9-4.7c0-2,0.4-3.7,1.1-5.2c0.7-1.5,1.7-2.8,3-3.8c1.3-1,2.7-1.8,4.4-2.3
		c1.7-0.5,3.5-0.8,5.4-0.8c1,0,2,0.1,3,0.2c1,0.1,1.9,0.2,2.7,0.3c0.9,0.1,1.8,0.3,2.7,0.4v11.8c-0.3,0-0.7-0.1-1.1-0.1
		c-0.3,0-0.7-0.1-1.1-0.1c-0.4,0-0.9-0.1-1.3-0.1c-0.3,0-0.6,0-0.9,0c-0.4,0-0.7,0.1-1.1,0.2c-0.3,0.1-0.6,0.2-0.9,0.4
		c-0.3,0.2-0.4,0.5-0.4,0.9c0,0.3,0.3,0.8,0.9,1.3c0.6,0.5,1.3,1.1,2.1,1.8c0.8,0.7,1.7,1.4,2.7,2.3c1,0.9,1.9,1.9,2.7,3
		s1.5,2.4,2.1,3.8c0.6,1.4,0.9,3,0.9,4.8c0,1.8-0.3,3.6-0.9,5.2c-0.6,1.6-1.5,3-2.7,4.2c-1.2,1.2-2.8,2.1-4.8,2.8
		c-1.9,0.7-4.2,1-6.9,1c-1.6,0-3.1-0.1-4.4-0.2c-1.4-0.1-2.6-0.3-3.6-0.5c-1.2-0.2-2.3-0.5-3.3-0.8V58.3z M195.1,65.9
		c0.6,0.1,1.2,0.2,1.9,0.3c0.6,0.1,1.2,0.2,1.9,0.2c0.7,0.1,1.3,0.1,2,0.1c1.2,0,2.3-0.1,3.4-0.4c1.1-0.3,2.1-0.7,3-1.4
		c0.9-0.6,1.6-1.4,2.1-2.4c0.5-1,0.8-2.2,0.8-3.6c0-1.2-0.3-2.4-0.9-3.5c-0.6-1.1-1.4-2.1-2.3-3.1c-0.9-1-2-2-3-2.9
		c-1.1-0.9-2.1-1.9-3-2.8s-1.7-1.9-2.3-2.8c-0.6-0.9-0.9-1.9-0.9-2.9c0-1.5,0.5-2.7,1.4-3.5c1-0.8,2.5-1.2,4.7-1.2c0.3,0,0.7,0,1,0
		c0.4,0,0.7,0.1,1,0.1c0.3,0,0.7,0.1,1,0.1v-1.6c-0.3,0-0.6,0-0.9-0.1c-0.3,0-0.6-0.1-1-0.1c-0.4,0-0.7,0-1.1,0
		c-2.3,0-4.1,0.5-5.6,1.5c-1.5,1-2.2,2.6-2.2,4.8c0,1.2,0.3,2.3,0.9,3.3c0.6,1,1.4,2,2.3,3c0.9,1,2,1.9,3,2.9c1.1,0.9,2.1,1.9,3,2.8
		c0.9,0.9,1.7,1.9,2.3,2.9c0.6,1,0.9,2.1,0.9,3.1c0,2-0.7,3.5-2,4.6c-1.4,1.1-3.2,1.6-5.6,1.6c-1.4,0-2.7-0.1-3.9-0.3
		c-0.6-0.1-1.2-0.2-1.8-0.3V65.9z"/>
	<path id="XMLID_84_" class="st1" d="M218.4,50.4c0-3,0.6-5.9,1.7-8.6c1.2-2.7,2.7-5,4.7-7c2-2,4.3-3.6,7-4.7
		c2.7-1.2,5.5-1.7,8.6-1.7s5.9,0.6,8.6,1.7c2.7,1.2,5,2.7,7,4.7c2,2,3.6,4.3,4.7,7c1.2,2.7,1.7,5.5,1.7,8.6s-0.6,5.9-1.7,8.6
		c-1.2,2.7-2.7,5-4.7,7c-2,2-4.3,3.6-7,4.7c-2.7,1.2-5.5,1.7-8.6,1.7s-5.9-0.6-8.6-1.7c-2.7-1.2-5-2.7-7-4.7c-2-2-3.6-4.3-4.7-7
		C218.9,56.3,218.4,53.4,218.4,50.4z M224.3,50.4c0,2.2,0.4,4.3,1.3,6.3c0.8,2,2,3.7,3.5,5.1c1.5,1.5,3.2,2.6,5.1,3.5
		c2,0.8,4,1.3,6.3,1.3c2.2,0,4.3-0.4,6.3-1.3c2-0.8,3.7-2,5.1-3.5c1.5-1.5,2.6-3.2,3.5-5.1c0.8-2,1.3-4,1.3-6.3
		c0-2.2-0.4-4.3-1.3-6.3c-0.8-2-2-3.7-3.5-5.1c-1.5-1.5-3.2-2.6-5.1-3.5c-2-0.8-4-1.3-6.3-1.3c-2.2,0-4.3,0.4-6.3,1.3
		c-2,0.8-3.7,2-5.1,3.5c-1.5,1.5-2.6,3.2-3.5,5.1C224.7,46.1,224.3,48.2,224.3,50.4z M240.4,64.9c-2,0-3.9-0.4-5.6-1.1
		c-1.7-0.8-3.3-1.8-4.6-3.1c-1.3-1.3-2.4-2.9-3.1-4.6c-0.8-1.7-1.1-3.6-1.1-5.6s0.4-3.9,1.1-5.6c0.8-1.7,1.8-3.3,3.1-4.6
		c1.3-1.3,2.9-2.4,4.6-3.1c1.7-0.8,3.6-1.1,5.6-1.1s3.9,0.4,5.6,1.1c1.7,0.8,3.3,1.8,4.6,3.1c1.3,1.3,2.4,2.9,3.1,4.6
		c0.8,1.7,1.1,3.6,1.1,5.6s-0.4,3.9-1.1,5.6c-0.8,1.7-1.8,3.3-3.1,4.6c-1.3,1.3-2.9,2.4-4.6,3.1C244.3,64.5,242.4,64.9,240.4,64.9z
		 M231.6,50.4c0,1.2,0.2,2.4,0.7,3.4c0.5,1.1,1.1,2,1.9,2.8c0.8,0.8,1.7,1.4,2.8,1.9c1.1,0.5,2.2,0.7,3.4,0.7c1.2,0,2.4-0.2,3.4-0.7
		c1.1-0.5,2-1.1,2.8-1.9c0.8-0.8,1.4-1.7,1.9-2.8c0.5-1.1,0.7-2.2,0.7-3.4c0-1.2-0.2-2.4-0.7-3.4c-0.5-1.1-1.1-2-1.9-2.8
		c-0.8-0.8-1.7-1.4-2.8-1.9c-1.1-0.5-2.2-0.7-3.4-0.7c-1.2,0-2.4,0.2-3.4,0.7c-1.1,0.5-2,1.1-2.8,1.9c-0.8,0.8-1.4,1.7-1.9,2.8
		C231.8,48,231.6,49.2,231.6,50.4z"/>
	<path id="XMLID_89_" class="st1" d="M265.9,29.3H277l11,16.1l10.9-16.1H310v42h-13.4V56.2L288,68.8l-8.6-12.6v15.1h-13.4V29.3z
		 M273.9,66.3V37.4L288,57.9l14-20.5v28.9h1.6V34.4H302l-14,20.7l-14.1-20.7h-1.6v31.9H273.9z"/>
	<path id="XMLID_92_" class="st1" d="M314.4,29.3h24.8v11h-11.3V45H339v10.5h-11.2v4.9h11.8v11h-25.2V29.3z M334.9,66.3v-1.5h-12.6
		V51h12v-1.5h-12V35.9h12.6v-1.5h-14.2v31.9H334.9z"/>
</g>
<rect id="XMLID_12_" x="587.5" y="77.5" style="fill:none;" width="14.7" height="26.9"/>
<rect id="XMLID_15_" x="351.7" y="38.5" class="st2" width="120.7" height="5.8"/>
<rect id="XMLID_17_" x="351.7" y="55.5" class="st2" width="120.7" height="5.8"/>
<g id="XMLID_1_">
	<g id="XMLID_2_">
		<path id="XMLID_9_" class="st3" d="M129.7,235.9c10.2-12.2,11.4-24.8,3.5-48.2c-5-14.8-13.3-26.2-7.2-35.4
			c6.5-9.8,20.3-0.3,8.8,12.8l2.3,1.6c13.8,1.6,20.6-17.3,10.3-22.7c-27.2-14.2-51,13.1-40.5,44.7c4.5,13.4,10.8,27.6,5.7,38.9
			c-4.4,9.7-12.9,15.4-18.6,15.6c-11.9,0.6-4-26.7,9.7-33.5c1.2-0.6,2.9-1.4,1.3-3.4c-16.9-1.9-26.8,5.9-32.5,16.8
			C55.9,254.8,104,266.5,129.7,235.9z"/>
		<path id="XMLID_8_" class="st3" d="M426.7,142.7c3.9,9.6,9.8,19.1,6.3,27.5c-2.9,7.2-6.7,10.2-10.9,10.9c-5.9,1-4.3-17.5,5.8-23
			c0.9-0.5,2.2-2.9,1-4.3c-12.8-0.7-20,5.4-23.9,13.5c-11.3,23.7,25.6,30.2,43.7,6.9c7.2-9.3,7.5-18.5,0.6-35.2
			c-4.4-10.6-11.1-18.5-6.9-25.5c4.5-7.4,15.3-1,7.2,8.9l1.8,1c10.5,0.6,14.8-13.4,6.8-16.9C437.1,97.5,417.4,120.2,426.7,142.7z"/>
		<path id="XMLID_7_" class="st3" d="M293.1,117.4c-7.3-5.8-27.8,3.9-33.6,18.3c-7.3,18.3-18.1,45-28.7,56.7
			c-11.2,12.3-12.3,2.8-11.2-4.3c2.6-16.7,18.9-55.4,27.8-66.3c-3.3-4.9-24.9-4.2-39.9,19.1c-5.6,8.8-18.4,38.1-32.6,61.2
			c-3.1,5-7,1.5-4-10.2c3.4-13.5,13.4-50.6,26.3-79.8c33.8-6.7,69.7-11.4,97.2-11.5c3.7-1,6.2-4.3,0-4.5c-23.7-0.8-59.3,2-92.6,6.2
			c6.4-12.8,13.3-23,20.3-27.3c-7.6-4.8-23-2.9-31.8,10.1c-3.9,5.8-7.8,12.8-11.5,20.4c-24.4,3.8-45.3,8.1-55.9,12.1
			c-11,4.2-9.8,17.5-3.1,15c13.9-5.2,32.7-10.6,53.6-15.4c-13.3,30-23.7,65.4-26.2,79.8c-6.2,35,15.5,34.8,26.1,21
			c11.5-15.1,35.5-68.2,39.2-73.8c1.1-1.9,2.6-0.9,1.8,0.8c-26.8,53.5-24.5,74.2-2.8,69.6c9.8-2.1,26.7-18.9,31.1-27.6
			c0.9-2.1,2.8-1.9,2.4-1c-17,44.1-38.6,79.8-53.1,91c-13.2,10.1-23-11.8,23.7-43.2c6.9-4.7,3.7-11.1-4.1-8.9l0,0
			c-24.1,3.8-93.1,25.7-123.4,46.7c-2.3,1.6-4.4,2.9-4.3,6.2c0.1,1.9,3.4,1.2,5,0.2c39.2-23.5,71.3-32.7,108.1-40.4
			c0.5,0.2,1.1,0.3,1.6,0.1c1.7-0.4,1.6,0.5,0.5,1.2c-2.5,1.4-5,2.7-5.6,2.9c-24.8,9.7-39.8,31.1-34.5,42c4.5,9.4,28.8,6,40.3-0.2
			c28.2-15.3,48.7-45.3,62.7-86.7C274.1,160.2,289.5,118.6,293.1,117.4z"/>
		<path id="XMLID_6_" class="st3" d="M457,202.1c-45.9-6-144.9,2-188.6,13.6c-13,3.4-9.4,10.3-2.8,9c0.1,0,2.9-0.7,3-0.7
			c35.9-7,123-13.1,173.8-3.4C448.5,221.7,466.8,203.4,457,202.1z"/>
		<path id="XMLID_3_" class="st3" d="M305.9,196.7c12.8-6.4,31.8-46,44.3-67.7c0.9-1.6,2.5-0.3,1.6,0.8
			c-31.6,54.4-18.2,60.7-5.7,59.9c16.7-1,32.1-25,35.5-30.4c1.4-2.1,2.2-0.4,1.4,1.1c-0.8,2.5-3.7,6.9-6.4,12.9
			c-3.8,8.5,0.2,11.8,3.5,13.3c5.2,2.5,19.4,0.9,21.6-7.8c-14.2-0.3,19.8-67.3,23.3-71.4c-9.5-5.5-24.2,0.5-30.9,13.7
			c-14.3,28.3-26.3,51.1-33.8,51.5c-14.6,0.8,16.8-63.1,21.9-65.1c-3.1-4.5-23-2.6-34.1,14.6c-4,6.2-28.4,49.4-34.4,56.5
			c-10.6,12.6-11.4,1.8-8.4-10.8c1-4.3,2.7-9.8,4.9-15.9c7-15.8,14.5-20.8,19.1-25.9c30.9-34.3,48.6-62.1,41.6-73
			c-6.2-9.7-26.9-5.4-40.2,14.6c-24.5,36.7-47.1,87-50,110C277.9,200.6,294.6,202.3,305.9,196.7z M318.9,129.4
			c1.1-2.5,1.8-3.2,3.7-7.4l0,0c11-24.2,24.8-49.7,34.3-61.6c5.9-6.2,14.2,2.2-0.8,25.2c-8.8,13.6-18.8,26.1-29.7,37.1
			c0,0,0,0,0,0.1c-2.8,3.1-5.3,5.7-6.4,7.2C319.2,131,318.3,130.8,318.9,129.4z"/>
	</g>
</g>
</svg>
